# xmcd
#
# Track frame offsets: 
#        150
#        13400
#        24900
#        36725
#        51372
#        61302
#        74822
#        86864
#        99111
#        111428
#        123150
#        135178
#
# Disc length: 1957 seconds
#
# Revision: 1
# Processed by: cddbd v1.5.2PL0 Copyright (c) Steve Scherf et al.
# Submitted via: ExactAudioCopy v1.0b3
#
DISCID=aa07a30c
DTITLE=Various - Blues Volume 2
DYEAR=2003
DGENRE=Blues
TTITLE0=Ray Charles - Alone In The City
TTITLE1=Muddy Waters - Dissatisfied
TTITLE2=Jimmy Witherspoon - Fickle Woman
TTITLE3=Sonny Terry - Ham And Eggs
TTITLE4=Jimmy Rushing - 'She's Mine, She's Yours"
TTITLE5=Lightin' Hopkins - Stool Pigeon Blues
TTITLE6=Charles Brown - Trouble Blues
TTITLE7=Big Bill Broonzy - Lone Wolf Blues
TTITLE8=Leadbelly - Kansas City Papa
TTITLE9=Memphis Slim - Good Time Roll Creole
TTITLE10=Brownie McGhee - Face In The Crowd
TTITLE11=Champion Jack Dupree - Everybody's Blues
EXTD=
EXTT0=
EXTT1=
EXTT2=
EXTT3=
EXTT4=
EXTT5=
EXTT6=
EXTT7=
EXTT8=
EXTT9=
EXTT10=
EXTT11=
PLAYORDER=
